<?xml version="1.0" encoding="utf-8"?>
<svg xmlns="http://www.w3.org/2000/svg" xmlns:xlink="http://www.w3.org/1999/xlink" width="672" height="480" viewBox="0 0 2688 1920">
<defs>
  <clipPath id="clip920">
    <rect x="0" y="0" width="2688" height="1920"/>
  </clipPath>
</defs>
<path clip-path="url(#clip920)" d="
M0 1920 L2688 1920 L2688 0 L0 0  Z
  " fill="#ffffff" fill-rule="evenodd" fill-opacity="1"/>
<defs>
  <clipPath id="clip921">
    <rect x="537" y="0" width="1883" height="1883"/>
  </clipPath>
</defs>
<path clip-path="url(#clip920)" d="
M238.664 1734.12 L2640.76 1734.12 L2640.76 127.792 L238.664 127.792  Z
  " fill="#ffffff" fill-rule="evenodd" fill-opacity="1"/>
<defs>
  <clipPath id="clip922">
    <rect x="238" y="127" width="2403" height="1607"/>
  </clipPath>
</defs>
<polyline clip-path="url(#clip922)" style="stroke:#000000; stroke-linecap:round; stroke-linejoin:round; stroke-width:2; stroke-opacity:0.1; fill:none" points="
  306.647,1734.12 306.647,127.792 
  "/>
<polyline clip-path="url(#clip922)" style="stroke:#000000; stroke-linecap:round; stroke-linejoin:round; stroke-width:2; stroke-opacity:0.1; fill:none" points="
  759.872,1734.12 759.872,127.792 
  "/>
<polyline clip-path="url(#clip922)" style="stroke:#000000; stroke-linecap:round; stroke-linejoin:round; stroke-width:2; stroke-opacity:0.1; fill:none" points="
  1213.1,1734.12 1213.1,127.792 
  "/>
<polyline clip-path="url(#clip922)" style="stroke:#000000; stroke-linecap:round; stroke-linejoin:round; stroke-width:2; stroke-opacity:0.1; fill:none" points="
  1666.32,1734.12 1666.32,127.792 
  "/>
<polyline clip-path="url(#clip922)" style="stroke:#000000; stroke-linecap:round; stroke-linejoin:round; stroke-width:2; stroke-opacity:0.1; fill:none" points="
  2119.55,1734.12 2119.55,127.792 
  "/>
<polyline clip-path="url(#clip922)" style="stroke:#000000; stroke-linecap:round; stroke-linejoin:round; stroke-width:2; stroke-opacity:0.1; fill:none" points="
  2572.77,1734.12 2572.77,127.792 
  "/>
<polyline clip-path="url(#clip920)" style="stroke:#000000; stroke-linecap:round; stroke-linejoin:round; stroke-width:4; stroke-opacity:1; fill:none" points="
  238.664,1734.12 2640.76,1734.12 
  "/>
<polyline clip-path="url(#clip920)" style="stroke:#000000; stroke-linecap:round; stroke-linejoin:round; stroke-width:4; stroke-opacity:1; fill:none" points="
  306.647,1734.12 306.647,1715.22 
  "/>
<polyline clip-path="url(#clip920)" style="stroke:#000000; stroke-linecap:round; stroke-linejoin:round; stroke-width:4; stroke-opacity:1; fill:none" points="
  759.872,1734.12 759.872,1715.22 
  "/>
<polyline clip-path="url(#clip920)" style="stroke:#000000; stroke-linecap:round; stroke-linejoin:round; stroke-width:4; stroke-opacity:1; fill:none" points="
  1213.1,1734.12 1213.1,1715.22 
  "/>
<polyline clip-path="url(#clip920)" style="stroke:#000000; stroke-linecap:round; stroke-linejoin:round; stroke-width:4; stroke-opacity:1; fill:none" points="
  1666.32,1734.12 1666.32,1715.22 
  "/>
<polyline clip-path="url(#clip920)" style="stroke:#000000; stroke-linecap:round; stroke-linejoin:round; stroke-width:4; stroke-opacity:1; fill:none" points="
  2119.55,1734.12 2119.55,1715.22 
  "/>
<polyline clip-path="url(#clip920)" style="stroke:#000000; stroke-linecap:round; stroke-linejoin:round; stroke-width:4; stroke-opacity:1; fill:none" points="
  2572.77,1734.12 2572.77,1715.22 
  "/>
<path clip-path="url(#clip920)" d="M306.647 1767.34 Q303.036 1767.34 301.208 1770.9 Q299.402 1774.45 299.402 1781.58 Q299.402 1788.68 301.208 1792.25 Q303.036 1795.79 306.647 1795.79 Q310.282 1795.79 312.087 1792.25 Q313.916 1788.68 313.916 1781.58 Q313.916 1774.45 312.087 1770.9 Q310.282 1767.34 306.647 1767.34 M306.647 1763.64 Q312.458 1763.64 315.513 1768.24 Q318.592 1772.83 318.592 1781.58 Q318.592 1790.3 315.513 1794.91 Q312.458 1799.49 306.647 1799.49 Q300.837 1799.49 297.759 1794.91 Q294.703 1790.3 294.703 1781.58 Q294.703 1772.83 297.759 1768.24 Q300.837 1763.64 306.647 1763.64 Z" fill="#000000" fill-rule="evenodd" fill-opacity="1" /><path clip-path="url(#clip920)" d="M719.479 1794.89 L727.118 1794.89 L727.118 1768.52 L718.808 1770.19 L718.808 1765.93 L727.072 1764.26 L731.747 1764.26 L731.747 1794.89 L739.386 1794.89 L739.386 1798.82 L719.479 1798.82 L719.479 1794.89 Z" fill="#000000" fill-rule="evenodd" fill-opacity="1" /><path clip-path="url(#clip920)" d="M758.831 1767.34 Q755.22 1767.34 753.391 1770.9 Q751.585 1774.45 751.585 1781.58 Q751.585 1788.68 753.391 1792.25 Q755.22 1795.79 758.831 1795.79 Q762.465 1795.79 764.27 1792.25 Q766.099 1788.68 766.099 1781.58 Q766.099 1774.45 764.27 1770.9 Q762.465 1767.34 758.831 1767.34 M758.831 1763.64 Q764.641 1763.64 767.696 1768.24 Q770.775 1772.83 770.775 1781.58 Q770.775 1790.3 767.696 1794.91 Q764.641 1799.49 758.831 1799.49 Q753.021 1799.49 749.942 1794.91 Q746.886 1790.3 746.886 1781.58 Q746.886 1772.83 749.942 1768.24 Q753.021 1763.64 758.831 1763.64 Z" fill="#000000" fill-rule="evenodd" fill-opacity="1" /><path clip-path="url(#clip920)" d="M788.993 1767.34 Q785.381 1767.34 783.553 1770.9 Q781.747 1774.45 781.747 1781.58 Q781.747 1788.68 783.553 1792.25 Q785.381 1795.79 788.993 1795.79 Q792.627 1795.79 794.432 1792.25 Q796.261 1788.68 796.261 1781.58 Q796.261 1774.45 794.432 1770.9 Q792.627 1767.34 788.993 1767.34 M788.993 1763.64 Q794.803 1763.64 797.858 1768.24 Q800.937 1772.83 800.937 1781.58 Q800.937 1790.3 797.858 1794.91 Q794.803 1799.49 788.993 1799.49 Q783.182 1799.49 780.104 1794.91 Q777.048 1790.3 777.048 1781.58 Q777.048 1772.83 780.104 1768.24 Q783.182 1763.64 788.993 1763.64 Z" fill="#000000" fill-rule="evenodd" fill-opacity="1" /><path clip-path="url(#clip920)" d="M1176.79 1794.89 L1193.11 1794.89 L1193.11 1798.82 L1171.16 1798.82 L1171.16 1794.89 Q1173.83 1792.13 1178.41 1787.5 Q1183.02 1782.85 1184.2 1781.51 Q1186.44 1778.98 1187.32 1777.25 Q1188.22 1775.49 1188.22 1773.8 Q1188.22 1771.04 1186.28 1769.31 Q1184.36 1767.57 1181.26 1767.57 Q1179.06 1767.57 1176.6 1768.34 Q1174.17 1769.1 1171.4 1770.65 L1171.4 1765.93 Q1174.22 1764.79 1176.67 1764.21 Q1179.13 1763.64 1181.16 1763.64 Q1186.53 1763.64 1189.73 1766.32 Q1192.92 1769.01 1192.92 1773.5 Q1192.92 1775.63 1192.11 1777.55 Q1191.33 1779.45 1189.22 1782.04 Q1188.64 1782.71 1185.54 1785.93 Q1182.44 1789.12 1176.79 1794.89 Z" fill="#000000" fill-rule="evenodd" fill-opacity="1" /><path clip-path="url(#clip920)" d="M1212.92 1767.34 Q1209.31 1767.34 1207.48 1770.9 Q1205.68 1774.45 1205.68 1781.58 Q1205.68 1788.68 1207.48 1792.25 Q1209.31 1795.79 1212.92 1795.79 Q1216.56 1795.79 1218.36 1792.25 Q1220.19 1788.68 1220.19 1781.58 Q1220.19 1774.45 1218.36 1770.9 Q1216.56 1767.34 1212.92 1767.34 M1212.92 1763.64 Q1218.73 1763.64 1221.79 1768.24 Q1224.87 1772.83 1224.87 1781.58 Q1224.87 1790.3 1221.79 1794.91 Q1218.73 1799.49 1212.92 1799.49 Q1207.11 1799.49 1204.03 1794.91 Q1200.98 1790.3 1200.98 1781.58 Q1200.98 1772.83 1204.03 1768.24 Q1207.11 1763.64 1212.92 1763.64 Z" fill="#000000" fill-rule="evenodd" fill-opacity="1" /><path clip-path="url(#clip920)" d="M1243.09 1767.34 Q1239.47 1767.34 1237.65 1770.9 Q1235.84 1774.45 1235.84 1781.58 Q1235.84 1788.68 1237.65 1792.25 Q1239.47 1795.79 1243.09 1795.79 Q1246.72 1795.79 1248.53 1792.25 Q1250.35 1788.68 1250.35 1781.58 Q1250.35 1774.45 1248.53 1770.9 Q1246.72 1767.34 1243.09 1767.34 M1243.09 1763.64 Q1248.9 1763.64 1251.95 1768.24 Q1255.03 1772.83 1255.03 1781.58 Q1255.03 1790.3 1251.95 1794.91 Q1248.9 1799.49 1243.09 1799.49 Q1237.28 1799.49 1234.2 1794.91 Q1231.14 1790.3 1231.14 1781.58 Q1231.14 1772.83 1234.2 1768.24 Q1237.28 1763.64 1243.09 1763.64 Z" fill="#000000" fill-rule="evenodd" fill-opacity="1" /><path clip-path="url(#clip920)" d="M1640.08 1780.19 Q1643.44 1780.9 1645.32 1783.17 Q1647.21 1785.44 1647.21 1788.77 Q1647.21 1793.89 1643.7 1796.69 Q1640.18 1799.49 1633.7 1799.49 Q1631.52 1799.49 1629.2 1799.05 Q1626.91 1798.64 1624.46 1797.78 L1624.46 1793.27 Q1626.4 1794.4 1628.72 1794.98 Q1631.03 1795.56 1633.56 1795.56 Q1637.95 1795.56 1640.25 1793.82 Q1642.56 1792.08 1642.56 1788.77 Q1642.56 1785.72 1640.41 1784.01 Q1638.28 1782.27 1634.46 1782.27 L1630.43 1782.27 L1630.43 1778.43 L1634.64 1778.43 Q1638.09 1778.43 1639.92 1777.06 Q1641.75 1775.67 1641.75 1773.08 Q1641.75 1770.42 1639.85 1769.01 Q1637.98 1767.57 1634.46 1767.57 Q1632.54 1767.57 1630.34 1767.99 Q1628.14 1768.4 1625.5 1769.28 L1625.5 1765.12 Q1628.16 1764.38 1630.48 1764.01 Q1632.82 1763.64 1634.88 1763.64 Q1640.2 1763.64 1643.3 1766.07 Q1646.4 1768.47 1646.4 1772.59 Q1646.4 1775.46 1644.76 1777.46 Q1643.12 1779.42 1640.08 1780.19 Z" fill="#000000" fill-rule="evenodd" fill-opacity="1" /><path clip-path="url(#clip920)" d="M1666.08 1767.34 Q1662.47 1767.34 1660.64 1770.9 Q1658.83 1774.45 1658.83 1781.58 Q1658.83 1788.68 1660.64 1792.25 Q1662.47 1795.79 1666.08 1795.79 Q1669.71 1795.79 1671.52 1792.25 Q1673.35 1788.68 1673.35 1781.58 Q1673.35 1774.45 1671.52 1770.9 Q1669.71 1767.34 1666.08 1767.34 M1666.08 1763.64 Q1671.89 1763.64 1674.94 1768.24 Q1678.02 1772.83 1678.02 1781.58 Q1678.02 1790.3 1674.94 1794.91 Q1671.89 1799.49 1666.08 1799.49 Q1660.27 1799.49 1657.19 1794.91 Q1654.13 1790.3 1654.13 1781.58 Q1654.13 1772.83 1657.19 1768.24 Q1660.27 1763.64 1666.08 1763.64 Z" fill="#000000" fill-rule="evenodd" fill-opacity="1" /><path clip-path="url(#clip920)" d="M1696.24 1767.34 Q1692.63 1767.34 1690.8 1770.9 Q1689 1774.45 1689 1781.58 Q1689 1788.68 1690.8 1792.25 Q1692.63 1795.79 1696.24 1795.79 Q1699.88 1795.79 1701.68 1792.25 Q1703.51 1788.68 1703.51 1781.58 Q1703.51 1774.45 1701.68 1770.9 Q1699.88 1767.34 1696.24 1767.34 M1696.24 1763.64 Q1702.05 1763.64 1705.11 1768.24 Q1708.19 1772.83 1708.19 1781.58 Q1708.19 1790.3 1705.11 1794.91 Q1702.05 1799.49 1696.24 1799.49 Q1690.43 1799.49 1687.35 1794.91 Q1684.3 1790.3 1684.3 1781.58 Q1684.3 1772.83 1687.35 1768.24 Q1690.43 1763.64 1696.24 1763.64 Z" fill="#000000" fill-rule="evenodd" fill-opacity="1" /><path clip-path="url(#clip920)" d="M2092.64 1768.34 L2080.83 1786.78 L2092.64 1786.78 L2092.64 1768.34 M2091.41 1764.26 L2097.29 1764.26 L2097.29 1786.78 L2102.22 1786.78 L2102.22 1790.67 L2097.29 1790.67 L2097.29 1798.82 L2092.64 1798.82 L2092.64 1790.67 L2077.04 1790.67 L2077.04 1786.16 L2091.41 1764.26 Z" fill="#000000" fill-rule="evenodd" fill-opacity="1" /><path clip-path="url(#clip920)" d="M2119.95 1767.34 Q2116.34 1767.34 2114.51 1770.9 Q2112.71 1774.45 2112.71 1781.58 Q2112.71 1788.68 2114.51 1792.25 Q2116.34 1795.79 2119.95 1795.79 Q2123.59 1795.79 2125.39 1792.25 Q2127.22 1788.68 2127.22 1781.58 Q2127.22 1774.45 2125.39 1770.9 Q2123.59 1767.34 2119.95 1767.34 M2119.95 1763.64 Q2125.76 1763.64 2128.82 1768.24 Q2131.9 1772.83 2131.9 1781.58 Q2131.9 1790.3 2128.82 1794.91 Q2125.76 1799.49 2119.95 1799.49 Q2114.14 1799.49 2111.06 1794.91 Q2108.01 1790.3 2108.01 1781.58 Q2108.01 1772.83 2111.06 1768.24 Q2114.14 1763.64 2119.95 1763.64 Z" fill="#000000" fill-rule="evenodd" fill-opacity="1" /><path clip-path="url(#clip920)" d="M2150.11 1767.34 Q2146.5 1767.34 2144.67 1770.9 Q2142.87 1774.45 2142.87 1781.58 Q2142.87 1788.68 2144.67 1792.25 Q2146.5 1795.79 2150.11 1795.79 Q2153.75 1795.79 2155.55 1792.25 Q2157.38 1788.68 2157.38 1781.58 Q2157.38 1774.45 2155.55 1770.9 Q2153.75 1767.34 2150.11 1767.34 M2150.11 1763.64 Q2155.92 1763.64 2158.98 1768.24 Q2162.06 1772.83 2162.06 1781.58 Q2162.06 1790.3 2158.98 1794.91 Q2155.92 1799.49 2150.11 1799.49 Q2144.3 1799.49 2141.23 1794.91 Q2138.17 1790.3 2138.17 1781.58 Q2138.17 1772.83 2141.23 1768.24 Q2144.3 1763.64 2150.11 1763.64 Z" fill="#000000" fill-rule="evenodd" fill-opacity="1" /><path clip-path="url(#clip920)" d="M2532.39 1764.26 L2550.75 1764.26 L2550.75 1768.2 L2536.67 1768.2 L2536.67 1776.67 Q2537.69 1776.32 2538.71 1776.16 Q2539.73 1775.97 2540.75 1775.97 Q2546.53 1775.97 2549.91 1779.15 Q2553.29 1782.32 2553.29 1787.73 Q2553.29 1793.31 2549.82 1796.41 Q2546.35 1799.49 2540.03 1799.49 Q2537.85 1799.49 2535.58 1799.12 Q2533.34 1798.75 2530.93 1798.01 L2530.93 1793.31 Q2533.02 1794.45 2535.24 1795 Q2537.46 1795.56 2539.94 1795.56 Q2543.94 1795.56 2546.28 1793.45 Q2548.62 1791.34 2548.62 1787.73 Q2548.62 1784.12 2546.28 1782.02 Q2543.94 1779.91 2539.94 1779.91 Q2538.06 1779.91 2536.19 1780.33 Q2534.33 1780.74 2532.39 1781.62 L2532.39 1764.26 Z" fill="#000000" fill-rule="evenodd" fill-opacity="1" /><path clip-path="url(#clip920)" d="M2572.51 1767.34 Q2568.89 1767.34 2567.07 1770.9 Q2565.26 1774.45 2565.26 1781.58 Q2565.26 1788.68 2567.07 1792.25 Q2568.89 1795.79 2572.51 1795.79 Q2576.14 1795.79 2577.95 1792.25 Q2579.77 1788.68 2579.77 1781.58 Q2579.77 1774.45 2577.95 1770.9 Q2576.14 1767.34 2572.51 1767.34 M2572.51 1763.64 Q2578.32 1763.64 2581.37 1768.24 Q2584.45 1772.83 2584.45 1781.58 Q2584.45 1790.3 2581.37 1794.91 Q2578.32 1799.49 2572.51 1799.49 Q2566.7 1799.49 2563.62 1794.91 Q2560.56 1790.3 2560.56 1781.58 Q2560.56 1772.83 2563.62 1768.24 Q2566.7 1763.64 2572.51 1763.64 Z" fill="#000000" fill-rule="evenodd" fill-opacity="1" /><path clip-path="url(#clip920)" d="M2602.67 1767.34 Q2599.06 1767.34 2597.23 1770.9 Q2595.42 1774.45 2595.42 1781.58 Q2595.42 1788.68 2597.23 1792.25 Q2599.06 1795.79 2602.67 1795.79 Q2606.3 1795.79 2608.11 1792.25 Q2609.94 1788.68 2609.94 1781.58 Q2609.94 1774.45 2608.11 1770.9 Q2606.3 1767.34 2602.67 1767.34 M2602.67 1763.64 Q2608.48 1763.64 2611.53 1768.24 Q2614.61 1772.83 2614.61 1781.58 Q2614.61 1790.3 2611.53 1794.91 Q2608.48 1799.49 2602.67 1799.49 Q2596.86 1799.49 2593.78 1794.91 Q2590.72 1790.3 2590.72 1781.58 Q2590.72 1772.83 2593.78 1768.24 Q2596.86 1763.64 2602.67 1763.64 Z" fill="#000000" fill-rule="evenodd" fill-opacity="1" /><path clip-path="url(#clip920)" d="M1193.64 1835.78 L1233.84 1835.78 L1233.84 1841.19 L1216.97 1841.19 L1216.97 1883.3 L1210.51 1883.3 L1210.51 1841.19 L1193.64 1841.19 L1193.64 1835.78 Z" fill="#000000" fill-rule="evenodd" fill-opacity="1" /><path clip-path="url(#clip920)" d="M1237.79 1847.65 L1243.65 1847.65 L1243.65 1883.3 L1237.79 1883.3 L1237.79 1847.65 M1237.79 1833.78 L1243.65 1833.78 L1243.65 1841.19 L1237.79 1841.19 L1237.79 1833.78 Z" fill="#000000" fill-rule="evenodd" fill-opacity="1" /><path clip-path="url(#clip920)" d="M1283.65 1854.5 Q1285.85 1850.55 1288.91 1848.67 Q1291.96 1846.79 1296.1 1846.79 Q1301.67 1846.79 1304.69 1850.71 Q1307.72 1854.59 1307.72 1861.78 L1307.72 1883.3 L1301.83 1883.3 L1301.83 1861.98 Q1301.83 1856.85 1300.01 1854.37 Q1298.2 1851.89 1294.48 1851.89 Q1289.92 1851.89 1287.28 1854.91 Q1284.64 1857.93 1284.64 1863.15 L1284.64 1883.3 L1278.75 1883.3 L1278.75 1861.98 Q1278.75 1856.82 1276.94 1854.37 Q1275.12 1851.89 1271.34 1851.89 Q1266.85 1851.89 1264.21 1854.94 Q1261.57 1857.97 1261.57 1863.15 L1261.57 1883.3 L1255.68 1883.3 L1255.68 1847.65 L1261.57 1847.65 L1261.57 1853.19 Q1263.57 1849.91 1266.37 1848.35 Q1269.17 1846.79 1273.02 1846.79 Q1276.91 1846.79 1279.61 1848.77 Q1282.35 1850.74 1283.65 1854.5 Z" fill="#000000" fill-rule="evenodd" fill-opacity="1" /><path clip-path="url(#clip920)" d="M1349.89 1864.01 L1349.89 1866.88 L1322.96 1866.88 Q1323.34 1872.92 1326.59 1876.11 Q1329.87 1879.26 1335.69 1879.26 Q1339.07 1879.26 1342.22 1878.43 Q1345.4 1877.6 1348.52 1875.95 L1348.52 1881.49 Q1345.37 1882.82 1342.06 1883.52 Q1338.75 1884.22 1335.34 1884.22 Q1326.81 1884.22 1321.82 1879.26 Q1316.85 1874.29 1316.85 1865.83 Q1316.85 1857.07 1321.56 1851.95 Q1326.3 1846.79 1334.33 1846.79 Q1341.52 1846.79 1345.69 1851.44 Q1349.89 1856.06 1349.89 1864.01 M1344.03 1862.29 Q1343.97 1857.49 1341.33 1854.62 Q1338.72 1851.76 1334.39 1851.76 Q1329.49 1851.76 1326.53 1854.53 Q1323.6 1857.3 1323.15 1862.33 L1344.03 1862.29 Z" fill="#000000" fill-rule="evenodd" fill-opacity="1" /><path clip-path="url(#clip920)" d="M1394.29 1833.84 Q1390.03 1841.16 1387.96 1848.32 Q1385.89 1855.48 1385.89 1862.84 Q1385.89 1870.19 1387.96 1877.41 Q1390.06 1884.61 1394.29 1891.89 L1389.2 1891.89 Q1384.42 1884.41 1382.04 1877.19 Q1379.68 1869.96 1379.68 1862.84 Q1379.68 1855.74 1382.04 1848.54 Q1384.39 1841.35 1389.2 1833.84 L1394.29 1833.84 Z" fill="#000000" fill-rule="evenodd" fill-opacity="1" /><path clip-path="url(#clip920)" d="M1428.38 1848.7 L1428.38 1854.24 Q1425.9 1852.97 1423.22 1852.33 Q1420.55 1851.7 1417.68 1851.7 Q1413.32 1851.7 1411.13 1853.03 Q1408.96 1854.37 1408.96 1857.04 Q1408.96 1859.08 1410.52 1860.26 Q1412.08 1861.4 1416.79 1862.45 L1418.8 1862.9 Q1425.04 1864.24 1427.65 1866.69 Q1430.29 1869.11 1430.29 1873.47 Q1430.29 1878.43 1426.34 1881.33 Q1422.43 1884.22 1415.55 1884.22 Q1412.69 1884.22 1409.57 1883.65 Q1406.48 1883.11 1403.04 1882 L1403.04 1875.95 Q1406.29 1877.64 1409.44 1878.49 Q1412.59 1879.32 1415.68 1879.32 Q1419.82 1879.32 1422.04 1877.92 Q1424.27 1876.49 1424.27 1873.91 Q1424.27 1871.52 1422.65 1870.25 Q1421.06 1868.98 1415.62 1867.8 L1413.58 1867.32 Q1408.14 1866.18 1405.72 1863.82 Q1403.3 1861.43 1403.3 1857.3 Q1403.3 1852.27 1406.86 1849.53 Q1410.43 1846.79 1416.98 1846.79 Q1420.23 1846.79 1423.1 1847.27 Q1425.96 1847.75 1428.38 1848.7 Z" fill="#000000" fill-rule="evenodd" fill-opacity="1" /><path clip-path="url(#clip920)" d="M1470.11 1864.01 L1470.11 1866.88 L1443.18 1866.88 Q1443.56 1872.92 1446.81 1876.11 Q1450.09 1879.26 1455.91 1879.26 Q1459.28 1879.26 1462.44 1878.43 Q1465.62 1877.6 1468.74 1875.95 L1468.74 1881.49 Q1465.59 1882.82 1462.28 1883.52 Q1458.97 1884.22 1455.56 1884.22 Q1447.03 1884.22 1442.03 1879.26 Q1437.07 1874.29 1437.07 1865.83 Q1437.07 1857.07 1441.78 1851.95 Q1446.52 1846.79 1454.54 1846.79 Q1461.74 1846.79 1465.9 1851.44 Q1470.11 1856.06 1470.11 1864.01 M1464.25 1862.29 Q1464.19 1857.49 1461.54 1854.62 Q1458.93 1851.76 1454.61 1851.76 Q1449.7 1851.76 1446.74 1854.53 Q1443.82 1857.3 1443.37 1862.33 L1464.25 1862.29 Z" fill="#000000" fill-rule="evenodd" fill-opacity="1" /><path clip-path="url(#clip920)" d="M1505.37 1849.02 L1505.37 1854.5 Q1502.89 1853.13 1500.37 1852.46 Q1497.89 1851.76 1495.35 1851.76 Q1489.65 1851.76 1486.5 1855.39 Q1483.35 1858.98 1483.35 1865.51 Q1483.35 1872.03 1486.5 1875.66 Q1489.65 1879.26 1495.35 1879.26 Q1497.89 1879.26 1500.37 1878.59 Q1502.89 1877.89 1505.37 1876.52 L1505.37 1881.93 Q1502.92 1883.08 1500.28 1883.65 Q1497.67 1884.22 1494.71 1884.22 Q1486.66 1884.22 1481.91 1879.16 Q1477.17 1874.1 1477.17 1865.51 Q1477.17 1856.79 1481.95 1851.79 Q1486.75 1846.79 1495.09 1846.79 Q1497.8 1846.79 1500.37 1847.37 Q1502.95 1847.91 1505.37 1849.02 Z" fill="#000000" fill-rule="evenodd" fill-opacity="1" /><path clip-path="url(#clip920)" d="M1529.37 1851.76 Q1524.66 1851.76 1521.92 1855.45 Q1519.19 1859.11 1519.19 1865.51 Q1519.19 1871.91 1521.89 1875.6 Q1524.63 1879.26 1529.37 1879.26 Q1534.05 1879.26 1536.79 1875.57 Q1539.52 1871.87 1539.52 1865.51 Q1539.52 1859.17 1536.79 1855.48 Q1534.05 1851.76 1529.37 1851.76 M1529.37 1846.79 Q1537.01 1846.79 1541.37 1851.76 Q1545.73 1856.72 1545.73 1865.51 Q1545.73 1874.26 1541.37 1879.26 Q1537.01 1884.22 1529.37 1884.22 Q1521.7 1884.22 1517.34 1879.26 Q1513.01 1874.26 1513.01 1865.51 Q1513.01 1856.72 1517.34 1851.76 Q1521.7 1846.79 1529.37 1846.79 Z" fill="#000000" fill-rule="evenodd" fill-opacity="1" /><path clip-path="url(#clip920)" d="M1585.07 1861.78 L1585.07 1883.3 L1579.21 1883.3 L1579.21 1861.98 Q1579.21 1856.92 1577.24 1854.4 Q1575.27 1851.89 1571.32 1851.89 Q1566.58 1851.89 1563.84 1854.91 Q1561.1 1857.93 1561.1 1863.15 L1561.1 1883.3 L1555.22 1883.3 L1555.22 1847.65 L1561.1 1847.65 L1561.1 1853.19 Q1563.2 1849.98 1566.04 1848.39 Q1568.9 1846.79 1572.63 1846.79 Q1578.77 1846.79 1581.92 1850.61 Q1585.07 1854.4 1585.07 1861.78 Z" fill="#000000" fill-rule="evenodd" fill-opacity="1" /><path clip-path="url(#clip920)" d="M1620.21 1853.06 L1620.21 1833.78 L1626.07 1833.78 L1626.07 1883.3 L1620.21 1883.3 L1620.21 1877.95 Q1618.36 1881.14 1615.53 1882.7 Q1612.73 1884.22 1608.78 1884.22 Q1602.32 1884.22 1598.25 1879.07 Q1594.21 1873.91 1594.21 1865.51 Q1594.21 1857.11 1598.25 1851.95 Q1602.32 1846.79 1608.78 1846.79 Q1612.73 1846.79 1615.53 1848.35 Q1618.36 1849.88 1620.21 1853.06 M1600.25 1865.51 Q1600.25 1871.97 1602.89 1875.66 Q1605.57 1879.32 1610.22 1879.32 Q1614.86 1879.32 1617.54 1875.66 Q1620.21 1871.97 1620.21 1865.51 Q1620.21 1859.05 1617.54 1855.39 Q1614.86 1851.7 1610.22 1851.7 Q1605.57 1851.7 1602.89 1855.39 Q1600.25 1859.05 1600.25 1865.51 Z" fill="#000000" fill-rule="evenodd" fill-opacity="1" /><path clip-path="url(#clip920)" d="M1660.85 1848.7 L1660.85 1854.24 Q1658.37 1852.97 1655.7 1852.33 Q1653.02 1851.7 1650.16 1851.7 Q1645.8 1851.7 1643.6 1853.03 Q1641.44 1854.37 1641.44 1857.04 Q1641.44 1859.08 1643 1860.26 Q1644.56 1861.4 1649.27 1862.45 L1651.27 1862.9 Q1657.51 1864.24 1660.12 1866.69 Q1662.76 1869.11 1662.76 1873.47 Q1662.76 1878.43 1658.82 1881.33 Q1654.9 1884.22 1648.03 1884.22 Q1645.16 1884.22 1642.04 1883.65 Q1638.96 1883.11 1635.52 1882 L1635.52 1875.95 Q1638.77 1877.64 1641.92 1878.49 Q1645.07 1879.32 1648.15 1879.32 Q1652.29 1879.32 1654.52 1877.92 Q1656.75 1876.49 1656.75 1873.91 Q1656.75 1871.52 1655.13 1870.25 Q1653.53 1868.98 1648.09 1867.8 L1646.05 1867.32 Q1640.61 1866.18 1638.19 1863.82 Q1635.77 1861.43 1635.77 1857.3 Q1635.77 1852.27 1639.34 1849.53 Q1642.9 1846.79 1649.46 1846.79 Q1652.71 1846.79 1655.57 1847.27 Q1658.44 1847.75 1660.85 1848.7 Z" fill="#000000" fill-rule="evenodd" fill-opacity="1" /><path clip-path="url(#clip920)" d="M1671.17 1833.84 L1676.26 1833.84 Q1681.03 1841.35 1683.39 1848.54 Q1685.78 1855.74 1685.78 1862.84 Q1685.78 1869.96 1683.39 1877.19 Q1681.03 1884.41 1676.26 1891.89 L1671.17 1891.89 Q1675.4 1884.61 1677.47 1877.41 Q1679.57 1870.19 1679.57 1862.84 Q1679.57 1855.48 1677.47 1848.32 Q1675.4 1841.16 1671.17 1833.84 Z" fill="#000000" fill-rule="evenodd" fill-opacity="1" /><polyline clip-path="url(#clip922)" style="stroke:#000000; stroke-linecap:round; stroke-linejoin:round; stroke-width:2; stroke-opacity:0.1; fill:none" points="
  238.664,1572.2 2640.76,1572.2 
  "/>
<polyline clip-path="url(#clip922)" style="stroke:#000000; stroke-linecap:round; stroke-linejoin:round; stroke-width:2; stroke-opacity:0.1; fill:none" points="
  238.664,1166.25 2640.76,1166.25 
  "/>
<polyline clip-path="url(#clip922)" style="stroke:#000000; stroke-linecap:round; stroke-linejoin:round; stroke-width:2; stroke-opacity:0.1; fill:none" points="
  238.664,760.296 2640.76,760.296 
  "/>
<polyline clip-path="url(#clip922)" style="stroke:#000000; stroke-linecap:round; stroke-linejoin:round; stroke-width:2; stroke-opacity:0.1; fill:none" points="
  238.664,354.343 2640.76,354.343 
  "/>
<polyline clip-path="url(#clip920)" style="stroke:#000000; stroke-linecap:round; stroke-linejoin:round; stroke-width:4; stroke-opacity:1; fill:none" points="
  238.664,1734.12 238.664,127.792 
  "/>
<polyline clip-path="url(#clip920)" style="stroke:#000000; stroke-linecap:round; stroke-linejoin:round; stroke-width:4; stroke-opacity:1; fill:none" points="
  238.664,1572.2 257.561,1572.2 
  "/>
<polyline clip-path="url(#clip920)" style="stroke:#000000; stroke-linecap:round; stroke-linejoin:round; stroke-width:4; stroke-opacity:1; fill:none" points="
  238.664,1166.25 257.561,1166.25 
  "/>
<polyline clip-path="url(#clip920)" style="stroke:#000000; stroke-linecap:round; stroke-linejoin:round; stroke-width:4; stroke-opacity:1; fill:none" points="
  238.664,760.296 257.561,760.296 
  "/>
<polyline clip-path="url(#clip920)" style="stroke:#000000; stroke-linecap:round; stroke-linejoin:round; stroke-width:4; stroke-opacity:1; fill:none" points="
  238.664,354.343 257.561,354.343 
  "/>
<path clip-path="url(#clip920)" d="M186.399 1558 Q182.788 1558 180.959 1561.57 Q179.154 1565.11 179.154 1572.24 Q179.154 1579.34 180.959 1582.91 Q182.788 1586.45 186.399 1586.45 Q190.033 1586.45 191.839 1582.91 Q193.668 1579.34 193.668 1572.24 Q193.668 1565.11 191.839 1561.57 Q190.033 1558 186.399 1558 M186.399 1554.3 Q192.209 1554.3 195.265 1558.9 Q198.344 1563.49 198.344 1572.24 Q198.344 1580.96 195.265 1585.57 Q192.209 1590.15 186.399 1590.15 Q180.589 1590.15 177.51 1585.57 Q174.455 1580.96 174.455 1572.24 Q174.455 1563.49 177.51 1558.9 Q180.589 1554.3 186.399 1554.3 Z" fill="#000000" fill-rule="evenodd" fill-opacity="1" /><path clip-path="url(#clip920)" d="M146.284 1148.97 L164.64 1148.97 L164.64 1152.9 L150.566 1152.9 L150.566 1161.38 Q151.585 1161.03 152.603 1160.87 Q153.622 1160.68 154.64 1160.68 Q160.427 1160.68 163.807 1163.85 Q167.186 1167.02 167.186 1172.44 Q167.186 1178.02 163.714 1181.12 Q160.242 1184.2 153.923 1184.2 Q151.747 1184.2 149.478 1183.83 Q147.233 1183.46 144.825 1182.72 L144.825 1178.02 Q146.909 1179.15 149.131 1179.71 Q151.353 1180.27 153.83 1180.27 Q157.835 1180.27 160.173 1178.16 Q162.51 1176.05 162.51 1172.44 Q162.51 1168.83 160.173 1166.72 Q157.835 1164.62 153.83 1164.62 Q151.955 1164.62 150.08 1165.03 Q148.228 1165.45 146.284 1166.33 L146.284 1148.97 Z" fill="#000000" fill-rule="evenodd" fill-opacity="1" /><path clip-path="url(#clip920)" d="M186.399 1152.05 Q182.788 1152.05 180.959 1155.61 Q179.154 1159.15 179.154 1166.28 Q179.154 1173.39 180.959 1176.96 Q182.788 1180.5 186.399 1180.5 Q190.033 1180.5 191.839 1176.96 Q193.668 1173.39 193.668 1166.28 Q193.668 1159.15 191.839 1155.61 Q190.033 1152.05 186.399 1152.05 M186.399 1148.34 Q192.209 1148.34 195.265 1152.95 Q198.344 1157.53 198.344 1166.28 Q198.344 1175.01 195.265 1179.62 Q192.209 1184.2 186.399 1184.2 Q180.589 1184.2 177.51 1179.62 Q174.455 1175.01 174.455 1166.28 Q174.455 1157.53 177.51 1152.95 Q180.589 1148.34 186.399 1148.34 Z" fill="#000000" fill-rule="evenodd" fill-opacity="1" /><path clip-path="url(#clip920)" d="M116.886 773.641 L124.525 773.641 L124.525 747.275 L116.214 748.942 L116.214 744.683 L124.478 743.016 L129.154 743.016 L129.154 773.641 L136.793 773.641 L136.793 777.576 L116.886 777.576 L116.886 773.641 Z" fill="#000000" fill-rule="evenodd" fill-opacity="1" /><path clip-path="url(#clip920)" d="M156.237 746.095 Q152.626 746.095 150.798 749.66 Q148.992 753.201 148.992 760.331 Q148.992 767.437 150.798 771.002 Q152.626 774.544 156.237 774.544 Q159.872 774.544 161.677 771.002 Q163.506 767.437 163.506 760.331 Q163.506 753.201 161.677 749.66 Q159.872 746.095 156.237 746.095 M156.237 742.391 Q162.048 742.391 165.103 746.998 Q168.182 751.581 168.182 760.331 Q168.182 769.058 165.103 773.664 Q162.048 778.248 156.237 778.248 Q150.427 778.248 147.349 773.664 Q144.293 769.058 144.293 760.331 Q144.293 751.581 147.349 746.998 Q150.427 742.391 156.237 742.391 Z" fill="#000000" fill-rule="evenodd" fill-opacity="1" /><path clip-path="url(#clip920)" d="M186.399 746.095 Q182.788 746.095 180.959 749.66 Q179.154 753.201 179.154 760.331 Q179.154 767.437 180.959 771.002 Q182.788 774.544 186.399 774.544 Q190.033 774.544 191.839 771.002 Q193.668 767.437 193.668 760.331 Q193.668 753.201 191.839 749.66 Q190.033 746.095 186.399 746.095 M186.399 742.391 Q192.209 742.391 195.265 746.998 Q198.344 751.581 198.344 760.331 Q198.344 769.058 195.265 773.664 Q192.209 778.248 186.399 778.248 Q180.589 778.248 177.51 773.664 Q174.455 769.058 174.455 760.331 Q174.455 751.581 177.51 746.998 Q180.589 742.391 186.399 742.391 Z" fill="#000000" fill-rule="evenodd" fill-opacity="1" /><path clip-path="url(#clip920)" d="M116.886 367.688 L124.525 367.688 L124.525 341.322 L116.214 342.989 L116.214 338.73 L124.478 337.063 L129.154 337.063 L129.154 367.688 L136.793 367.688 L136.793 371.623 L116.886 371.623 L116.886 367.688 Z" fill="#000000" fill-rule="evenodd" fill-opacity="1" /><path clip-path="url(#clip920)" d="M146.284 337.063 L164.64 337.063 L164.64 340.998 L150.566 340.998 L150.566 349.47 Q151.585 349.123 152.603 348.961 Q153.622 348.776 154.64 348.776 Q160.427 348.776 163.807 351.947 Q167.186 355.118 167.186 360.535 Q167.186 366.114 163.714 369.216 Q160.242 372.294 153.923 372.294 Q151.747 372.294 149.478 371.924 Q147.233 371.554 144.825 370.813 L144.825 366.114 Q146.909 367.248 149.131 367.804 Q151.353 368.359 153.83 368.359 Q157.835 368.359 160.173 366.253 Q162.51 364.146 162.51 360.535 Q162.51 356.924 160.173 354.818 Q157.835 352.711 153.83 352.711 Q151.955 352.711 150.08 353.128 Q148.228 353.544 146.284 354.424 L146.284 337.063 Z" fill="#000000" fill-rule="evenodd" fill-opacity="1" /><path clip-path="url(#clip920)" d="M186.399 340.142 Q182.788 340.142 180.959 343.706 Q179.154 347.248 179.154 354.378 Q179.154 361.484 180.959 365.049 Q182.788 368.591 186.399 368.591 Q190.033 368.591 191.839 365.049 Q193.668 361.484 193.668 354.378 Q193.668 347.248 191.839 343.706 Q190.033 340.142 186.399 340.142 M186.399 336.438 Q192.209 336.438 195.265 341.044 Q198.344 345.628 198.344 354.378 Q198.344 363.104 195.265 367.711 Q192.209 372.294 186.399 372.294 Q180.589 372.294 177.51 367.711 Q174.455 363.104 174.455 354.378 Q174.455 345.628 177.51 341.044 Q180.589 336.438 186.399 336.438 Z" fill="#000000" fill-rule="evenodd" fill-opacity="1" /><path clip-path="url(#clip920)" d="M20.4523 1119.9 L44.1009 1128.63 L44.1009 1111.15 L20.4523 1119.9 M14.1184 1123.53 L14.1184 1116.24 L61.6384 1098.13 L61.6384 1104.82 L49.4481 1109.15 L49.4481 1130.57 L61.6384 1134.9 L61.6384 1141.68 L14.1184 1123.53 Z" fill="#000000" fill-rule="evenodd" fill-opacity="1" /><path clip-path="url(#clip920)" d="M12.1132 1091.45 L12.1132 1085.59 L61.6384 1085.59 L61.6384 1091.45 L12.1132 1091.45 Z" fill="#000000" fill-rule="evenodd" fill-opacity="1" /><path clip-path="url(#clip920)" d="M15.869 1067.55 L25.9905 1067.55 L25.9905 1055.48 L30.542 1055.48 L30.542 1067.55 L49.8937 1067.55 Q54.2542 1067.55 55.4955 1066.37 Q56.7368 1065.16 56.7368 1061.5 L56.7368 1055.48 L61.6384 1055.48 L61.6384 1061.5 Q61.6384 1068.28 59.124 1070.86 Q56.5777 1073.43 49.8937 1073.43 L30.542 1073.43 L30.542 1077.73 L25.9905 1077.73 L25.9905 1073.43 L15.869 1073.43 L15.869 1067.55 Z" fill="#000000" fill-rule="evenodd" fill-opacity="1" /><path clip-path="url(#clip920)" d="M25.9905 1047.78 L25.9905 1041.92 L61.6384 1041.92 L61.6384 1047.78 L25.9905 1047.78 M12.1132 1047.78 L12.1132 1041.92 L19.5293 1041.92 L19.5293 1047.78 L12.1132 1047.78 Z" fill="#000000" fill-rule="evenodd" fill-opacity="1" /><path clip-path="url(#clip920)" d="M15.869 1023.88 L25.9905 1023.88 L25.9905 1011.81 L30.542 1011.81 L30.542 1023.88 L49.8937 1023.88 Q54.2542 1023.88 55.4955 1022.7 Q56.7368 1021.49 56.7368 1017.83 L56.7368 1011.81 L61.6384 1011.81 L61.6384 1017.83 Q61.6384 1024.61 59.124 1027.19 Q56.5777 1029.77 49.8937 1029.77 L30.542 1029.77 L30.542 1034.06 L25.9905 1034.06 L25.9905 1029.77 L15.869 1029.77 L15.869 1023.88 Z" fill="#000000" fill-rule="evenodd" fill-opacity="1" /><path clip-path="url(#clip920)" d="M47.5702 1004.72 L25.9905 1004.72 L25.9905 998.861 L47.3474 998.861 Q52.4082 998.861 54.9545 996.887 Q57.4689 994.914 57.4689 990.967 Q57.4689 986.225 54.4452 983.488 Q51.4215 980.718 46.2016 980.718 L25.9905 980.718 L25.9905 974.862 L61.6384 974.862 L61.6384 980.718 L56.1639 980.718 Q59.4104 982.851 61.0019 985.684 Q62.5615 988.485 62.5615 992.209 Q62.5615 998.351 58.742 1001.53 Q54.9226 1004.72 47.5702 1004.72 M25.1311 989.981 L25.1311 989.981 Z" fill="#000000" fill-rule="evenodd" fill-opacity="1" /><path clip-path="url(#clip920)" d="M31.4013 939.341 L12.1132 939.341 L12.1132 933.485 L61.6384 933.485 L61.6384 939.341 L56.2912 939.341 Q59.4741 941.187 61.0337 944.02 Q62.5615 946.821 62.5615 950.768 Q62.5615 957.229 57.4052 961.303 Q52.249 965.345 43.8463 965.345 Q35.4436 965.345 30.2873 961.303 Q25.1311 957.229 25.1311 950.768 Q25.1311 946.821 26.6907 944.02 Q28.2185 941.187 31.4013 939.341 M43.8463 959.298 Q50.3075 959.298 53.9996 956.656 Q57.6599 953.982 57.6599 949.336 Q57.6599 944.689 53.9996 942.015 Q50.3075 939.341 43.8463 939.341 Q37.3851 939.341 33.7248 942.015 Q30.0327 944.689 30.0327 949.336 Q30.0327 953.982 33.7248 956.656 Q37.3851 959.298 43.8463 959.298 Z" fill="#000000" fill-rule="evenodd" fill-opacity="1" /><path clip-path="url(#clip920)" d="M42.3504 890.93 L45.2149 890.93 L45.2149 917.857 Q51.2623 917.475 54.4452 914.229 Q57.5962 910.95 57.5962 905.126 Q57.5962 901.752 56.7687 898.601 Q55.9411 895.418 54.2861 892.299 L59.8242 892.299 Q61.161 895.45 61.8612 898.76 Q62.5615 902.07 62.5615 905.476 Q62.5615 914.006 57.5962 919.003 Q52.631 923.968 44.1646 923.968 Q35.4117 923.968 30.2873 919.258 Q25.1311 914.515 25.1311 906.494 Q25.1311 899.301 29.7781 895.132 Q34.3932 890.93 42.3504 890.93 M40.6316 896.787 Q35.8255 896.85 32.9609 899.492 Q30.0964 902.102 30.0964 906.431 Q30.0964 911.332 32.8654 914.292 Q35.6345 917.221 40.6634 917.666 L40.6316 896.787 Z" fill="#000000" fill-rule="evenodd" fill-opacity="1" /><path clip-path="url(#clip920)" d="M12.1769 846.529 Q19.4975 850.794 26.6589 852.863 Q33.8203 854.932 41.1727 854.932 Q48.5251 854.932 55.7502 852.863 Q62.9434 850.763 70.2321 846.529 L70.2321 851.622 Q62.7524 856.396 55.5274 858.783 Q48.3023 861.139 41.1727 861.139 Q34.0749 861.139 26.8817 858.783 Q19.6884 856.428 12.1769 851.622 L12.1769 846.529 Z" fill="#000000" fill-rule="evenodd" fill-opacity="1" /><path clip-path="url(#clip920)" d="M12.1132 835.389 L12.1132 829.501 L41.3637 829.501 L25.9905 812.027 L25.9905 804.548 L42.6686 823.454 L61.6384 803.752 L61.6384 811.391 L44.2282 829.501 L61.6384 829.501 L61.6384 835.389 L12.1132 835.389 Z" fill="#000000" fill-rule="evenodd" fill-opacity="1" /><path clip-path="url(#clip920)" d="M32.8336 769.663 Q28.8869 767.467 27.009 764.412 Q25.1311 761.356 25.1311 757.219 Q25.1311 751.649 29.046 748.625 Q32.9291 745.601 40.1224 745.601 L61.6384 745.601 L61.6384 751.489 L40.3133 751.489 Q35.1889 751.489 32.7063 753.304 Q30.2237 755.118 30.2237 758.842 Q30.2237 763.393 33.2474 766.035 Q36.2711 768.677 41.491 768.677 L61.6384 768.677 L61.6384 774.565 L40.3133 774.565 Q35.1571 774.565 32.7063 776.379 Q30.2237 778.194 30.2237 781.981 Q30.2237 786.469 33.2792 789.111 Q36.3029 791.752 41.491 791.752 L61.6384 791.752 L61.6384 797.641 L25.9905 797.641 L25.9905 791.752 L31.5287 791.752 Q28.2503 789.747 26.6907 786.946 Q25.1311 784.145 25.1311 780.294 Q25.1311 776.411 27.1045 773.706 Q29.0779 770.968 32.8336 769.663 Z" fill="#000000" fill-rule="evenodd" fill-opacity="1" /><path clip-path="url(#clip920)" d="M12.1769 734.843 L12.1769 729.75 Q19.6884 724.976 26.8817 722.621 Q34.0749 720.234 41.1727 720.234 Q48.3023 720.234 55.5274 722.621 Q62.7524 724.976 70.2321 729.75 L70.2321 734.843 Q62.9434 730.61 55.7502 728.541 Q48.5251 726.44 41.1727 726.44 Q33.8203 726.44 26.6589 728.541 Q19.4975 730.61 12.1769 734.843 Z" fill="#000000" fill-rule="evenodd" fill-opacity="1" /><path clip-path="url(#clip920)" d="M688.53 17.6457 Q679.618 17.6457 674.352 24.2892 Q669.127 30.9327 669.127 42.3968 Q669.127 53.8203 674.352 60.4638 Q679.618 67.1073 688.53 67.1073 Q697.442 67.1073 702.627 60.4638 Q707.853 53.8203 707.853 42.3968 Q707.853 30.9327 702.627 24.2892 Q697.442 17.6457 688.53 17.6457 M688.53 11.0023 Q701.25 11.0023 708.866 19.5497 Q716.482 28.0566 716.482 42.3968 Q716.482 56.6965 708.866 65.2439 Q701.25 73.7508 688.53 73.7508 Q675.77 73.7508 668.114 65.2439 Q660.498 56.737 660.498 42.3968 Q660.498 28.0566 668.114 19.5497 Q675.77 11.0023 688.53 11.0023 Z" fill="#000000" fill-rule="evenodd" fill-opacity="1" /><path clip-path="url(#clip920)" d="M755.249 34.1734 Q753.993 33.4443 752.494 33.1202 Q751.036 32.7556 749.253 32.7556 Q742.934 32.7556 739.531 36.8875 Q736.169 40.9789 736.169 48.6757 L736.169 72.576 L728.675 72.576 L728.675 27.2059 L736.169 27.2059 L736.169 34.2544 Q738.519 30.1225 742.286 28.1376 Q746.053 26.1121 751.441 26.1121 Q752.211 26.1121 753.142 26.2337 Q754.074 26.3147 755.208 26.5172 L755.249 34.1734 Z" fill="#000000" fill-rule="evenodd" fill-opacity="1" /><path clip-path="url(#clip920)" d="M763.067 27.2059 L770.521 27.2059 L770.521 72.576 L763.067 72.576 L763.067 27.2059 M763.067 9.54393 L770.521 9.54393 L770.521 18.9825 L763.067 18.9825 L763.067 9.54393 Z" fill="#000000" fill-rule="evenodd" fill-opacity="1" /><path clip-path="url(#clip920)" d="M803.698 32.4315 Q797.702 32.4315 794.218 37.1306 Q790.735 41.7891 790.735 49.9314 Q790.735 58.0738 794.178 62.7728 Q797.662 67.4314 803.698 67.4314 Q809.652 67.4314 813.136 62.7323 Q816.62 58.0333 816.62 49.9314 Q816.62 41.8701 813.136 37.1711 Q809.652 32.4315 803.698 32.4315 M803.698 26.1121 Q813.42 26.1121 818.969 32.4315 Q824.519 38.7509 824.519 49.9314 Q824.519 61.0714 818.969 67.4314 Q813.42 73.7508 803.698 73.7508 Q793.935 73.7508 788.385 67.4314 Q782.876 61.0714 782.876 49.9314 Q782.876 38.7509 788.385 32.4315 Q793.935 26.1121 803.698 26.1121 Z" fill="#000000" fill-rule="evenodd" fill-opacity="1" /><path clip-path="url(#clip920)" d="M874.588 45.1919 L874.588 72.576 L867.135 72.576 L867.135 45.4349 Q867.135 38.994 864.623 35.7938 Q862.112 32.5936 857.088 32.5936 Q851.053 32.5936 847.569 36.4419 Q844.085 40.2903 844.085 46.9338 L844.085 72.576 L836.591 72.576 L836.591 27.2059 L844.085 27.2059 L844.085 34.2544 Q846.759 30.163 850.364 28.1376 Q854.01 26.1121 858.749 26.1121 Q866.568 26.1121 870.578 30.9732 Q874.588 35.7938 874.588 45.1919 Z" fill="#000000" fill-rule="evenodd" fill-opacity="1" /><path clip-path="url(#clip920)" d="M896.504 12.096 L896.504 34.5785 L889.617 34.5785 L889.617 12.096 L896.504 12.096 Z" fill="#000000" fill-rule="evenodd" fill-opacity="1" /><path clip-path="url(#clip920)" d="M941.185 28.5427 L941.185 35.5912 Q938.026 33.9709 934.623 33.1607 Q931.22 32.3505 927.574 32.3505 Q922.024 32.3505 919.229 34.0519 Q916.475 35.7533 916.475 39.156 Q916.475 41.7486 918.46 43.2475 Q920.445 44.7058 926.44 46.0426 L928.992 46.6097 Q936.932 48.3111 940.254 51.4303 Q943.616 54.509 943.616 60.0587 Q943.616 66.3781 938.593 70.0644 Q933.61 73.7508 924.86 73.7508 Q921.214 73.7508 917.244 73.0216 Q913.315 72.3329 908.94 70.9151 L908.94 63.2184 Q913.072 65.3654 917.082 66.4591 Q921.093 67.5124 925.022 67.5124 Q930.288 67.5124 933.124 65.73 Q935.96 63.9071 935.96 60.6258 Q935.96 57.5877 933.894 55.9673 Q931.868 54.3469 924.941 52.8481 L922.349 52.2405 Q915.421 50.7821 912.343 47.7845 Q909.264 44.7463 909.264 39.4801 Q909.264 33.0797 913.801 29.5959 Q918.338 26.1121 926.683 26.1121 Q930.815 26.1121 934.461 26.7198 Q938.107 27.3274 941.185 28.5427 Z" fill="#000000" fill-rule="evenodd" fill-opacity="1" /><path clip-path="url(#clip920)" d="M1002.39 20.1573 L991.295 50.2555 L1013.53 50.2555 L1002.39 20.1573 M997.776 12.096 L1007.05 12.096 L1030.1 72.576 L1021.6 72.576 L1016.09 57.061 L988.824 57.061 L983.315 72.576 L974.686 72.576 L997.776 12.096 Z" fill="#000000" fill-rule="evenodd" fill-opacity="1" /><path clip-path="url(#clip920)" d="M1038.61 9.54393 L1046.06 9.54393 L1046.06 72.576 L1038.61 72.576 L1038.61 9.54393 Z" fill="#000000" fill-rule="evenodd" fill-opacity="1" /><path clip-path="url(#clip920)" d="M1069.03 14.324 L1069.03 27.2059 L1084.38 27.2059 L1084.38 32.9987 L1069.03 32.9987 L1069.03 57.6282 Q1069.03 63.1779 1070.53 64.7578 Q1072.07 66.3376 1076.73 66.3376 L1084.38 66.3376 L1084.38 72.576 L1076.73 72.576 Q1068.1 72.576 1064.82 69.3758 Q1061.54 66.1351 1061.54 57.6282 L1061.54 32.9987 L1056.07 32.9987 L1056.07 27.2059 L1061.54 27.2059 L1061.54 14.324 L1069.03 14.324 Z" fill="#000000" fill-rule="evenodd" fill-opacity="1" /><path clip-path="url(#clip920)" d="M1094.19 27.2059 L1101.64 27.2059 L1101.64 72.576 L1094.19 72.576 L1094.19 27.2059 M1094.19 9.54393 L1101.64 9.54393 L1101.64 18.9825 L1094.19 18.9825 L1094.19 9.54393 Z" fill="#000000" fill-rule="evenodd" fill-opacity="1" /><path clip-path="url(#clip920)" d="M1124.61 14.324 L1124.61 27.2059 L1139.96 27.2059 L1139.96 32.9987 L1124.61 32.9987 L1124.61 57.6282 Q1124.61 63.1779 1126.11 64.7578 Q1127.65 66.3376 1132.31 66.3376 L1139.96 66.3376 L1139.96 72.576 L1132.31 72.576 Q1123.68 72.576 1120.4 69.3758 Q1117.12 66.1351 1117.12 57.6282 L1117.12 32.9987 L1111.65 32.9987 L1111.65 27.2059 L1117.12 27.2059 L1117.12 14.324 L1124.61 14.324 Z" fill="#000000" fill-rule="evenodd" fill-opacity="1" /><path clip-path="url(#clip920)" d="M1149 54.671 L1149 27.2059 L1156.45 27.2059 L1156.45 54.3874 Q1156.45 60.8284 1158.96 64.0691 Q1161.47 67.2693 1166.5 67.2693 Q1172.53 67.2693 1176.02 63.421 Q1179.54 59.5726 1179.54 52.9291 L1179.54 27.2059 L1186.99 27.2059 L1186.99 72.576 L1179.54 72.576 L1179.54 65.6084 Q1176.83 69.7404 1173.22 71.7658 Q1169.66 73.7508 1164.92 73.7508 Q1157.1 73.7508 1153.05 68.8897 Q1149 64.0286 1149 54.671 M1167.75 26.1121 L1167.75 26.1121 Z" fill="#000000" fill-rule="evenodd" fill-opacity="1" /><path clip-path="url(#clip920)" d="M1232.2 34.0924 L1232.2 9.54393 L1239.66 9.54393 L1239.66 72.576 L1232.2 72.576 L1232.2 65.7705 Q1229.85 69.8214 1226.25 71.8063 Q1222.68 73.7508 1217.66 73.7508 Q1209.44 73.7508 1204.25 67.1883 Q1199.11 60.6258 1199.11 49.9314 Q1199.11 39.2371 1204.25 32.6746 Q1209.44 26.1121 1217.66 26.1121 Q1222.68 26.1121 1226.25 28.0971 Q1229.85 30.0415 1232.2 34.0924 M1206.8 49.9314 Q1206.8 58.1548 1210.17 62.8538 Q1213.57 67.5124 1219.48 67.5124 Q1225.4 67.5124 1228.8 62.8538 Q1232.2 58.1548 1232.2 49.9314 Q1232.2 41.7081 1228.8 37.0496 Q1225.4 32.3505 1219.48 32.3505 Q1213.57 32.3505 1210.17 37.0496 Q1206.8 41.7081 1206.8 49.9314 Z" fill="#000000" fill-rule="evenodd" fill-opacity="1" /><path clip-path="url(#clip920)" d="M1293.82 48.0275 L1293.82 51.6733 L1259.55 51.6733 Q1260.03 59.3701 1264.16 63.421 Q1268.34 67.4314 1275.75 67.4314 Q1280.04 67.4314 1284.05 66.3781 Q1288.1 65.3249 1292.07 63.2184 L1292.07 70.267 Q1288.06 71.9684 1283.85 72.8596 Q1279.64 73.7508 1275.3 73.7508 Q1264.45 73.7508 1258.09 67.4314 Q1251.77 61.1119 1251.77 50.3365 Q1251.77 39.1965 1257.76 32.6746 Q1263.8 26.1121 1274.01 26.1121 Q1283.16 26.1121 1288.47 32.0264 Q1293.82 37.9003 1293.82 48.0275 M1286.36 45.84 Q1286.28 39.7232 1282.92 36.0774 Q1279.6 32.4315 1274.09 32.4315 Q1267.85 32.4315 1264.08 35.9558 Q1260.36 39.4801 1259.79 45.8805 L1286.36 45.84 Z" fill="#000000" fill-rule="evenodd" fill-opacity="1" /><path clip-path="url(#clip920)" d="M1324.36 12.096 L1375.52 12.096 L1375.52 18.9825 L1354.05 18.9825 L1354.05 72.576 L1345.83 72.576 L1345.83 18.9825 L1324.36 18.9825 L1324.36 12.096 Z" fill="#000000" fill-rule="evenodd" fill-opacity="1" /><path clip-path="url(#clip920)" d="M1420.81 45.1919 L1420.81 72.576 L1413.36 72.576 L1413.36 45.4349 Q1413.36 38.994 1410.85 35.7938 Q1408.34 32.5936 1403.31 32.5936 Q1397.28 32.5936 1393.79 36.4419 Q1390.31 40.2903 1390.31 46.9338 L1390.31 72.576 L1382.81 72.576 L1382.81 9.54393 L1390.31 9.54393 L1390.31 34.2544 Q1392.98 30.163 1396.59 28.1376 Q1400.23 26.1121 1404.97 26.1121 Q1412.79 26.1121 1416.8 30.9732 Q1420.81 35.7938 1420.81 45.1919 Z" fill="#000000" fill-rule="evenodd" fill-opacity="1" /><path clip-path="url(#clip920)" d="M1461.97 34.1734 Q1460.71 33.4443 1459.21 33.1202 Q1457.76 32.7556 1455.97 32.7556 Q1449.65 32.7556 1446.25 36.8875 Q1442.89 40.9789 1442.89 48.6757 L1442.89 72.576 L1435.4 72.576 L1435.4 27.2059 L1442.89 27.2059 L1442.89 34.2544 Q1445.24 30.1225 1449.01 28.1376 Q1452.77 26.1121 1458.16 26.1121 Q1458.93 26.1121 1459.86 26.2337 Q1460.79 26.3147 1461.93 26.5172 L1461.97 34.1734 Z" fill="#000000" fill-rule="evenodd" fill-opacity="1" /><path clip-path="url(#clip920)" d="M1485.55 32.4315 Q1479.55 32.4315 1476.07 37.1306 Q1472.58 41.7891 1472.58 49.9314 Q1472.58 58.0738 1476.03 62.7728 Q1479.51 67.4314 1485.55 67.4314 Q1491.5 67.4314 1494.98 62.7323 Q1498.47 58.0333 1498.47 49.9314 Q1498.47 41.8701 1494.98 37.1711 Q1491.5 32.4315 1485.55 32.4315 M1485.55 26.1121 Q1495.27 26.1121 1500.82 32.4315 Q1506.37 38.7509 1506.37 49.9314 Q1506.37 61.0714 1500.82 67.4314 Q1495.27 73.7508 1485.55 73.7508 Q1475.78 73.7508 1470.23 67.4314 Q1464.72 61.0714 1464.72 49.9314 Q1464.72 38.7509 1470.23 32.4315 Q1475.78 26.1121 1485.55 26.1121 Z" fill="#000000" fill-rule="evenodd" fill-opacity="1" /><path clip-path="url(#clip920)" d="M1517.95 54.671 L1517.95 27.2059 L1525.41 27.2059 L1525.41 54.3874 Q1525.41 60.8284 1527.92 64.0691 Q1530.43 67.2693 1535.45 67.2693 Q1541.49 67.2693 1544.97 63.421 Q1548.5 59.5726 1548.5 52.9291 L1548.5 27.2059 L1555.95 27.2059 L1555.95 72.576 L1548.5 72.576 L1548.5 65.6084 Q1545.78 69.7404 1542.18 71.7658 Q1538.61 73.7508 1533.87 73.7508 Q1526.05 73.7508 1522 68.8897 Q1517.95 64.0286 1517.95 54.671 M1536.71 26.1121 L1536.71 26.1121 Z" fill="#000000" fill-rule="evenodd" fill-opacity="1" /><path clip-path="url(#clip920)" d="M1601.16 49.3643 Q1601.16 41.2625 1597.8 36.8065 Q1594.47 32.3505 1588.44 32.3505 Q1582.44 32.3505 1579.08 36.8065 Q1575.76 41.2625 1575.76 49.3643 Q1575.76 57.4256 1579.08 61.8816 Q1582.44 66.3376 1588.44 66.3376 Q1594.47 66.3376 1597.8 61.8816 Q1601.16 57.4256 1601.16 49.3643 M1608.61 66.9452 Q1608.61 78.5308 1603.47 84.1616 Q1598.32 89.8329 1587.71 89.8329 Q1583.78 89.8329 1580.3 89.2252 Q1576.81 88.6581 1573.53 87.4428 L1573.53 80.1917 Q1576.81 81.9741 1580.01 82.8248 Q1583.21 83.6755 1586.53 83.6755 Q1593.87 83.6755 1597.51 79.8271 Q1601.16 76.0193 1601.16 68.282 L1601.16 64.5957 Q1598.85 68.6061 1595.24 70.5911 Q1591.64 72.576 1586.62 72.576 Q1578.27 72.576 1573.17 66.2161 Q1568.06 59.8562 1568.06 49.3643 Q1568.06 38.832 1573.17 32.472 Q1578.27 26.1121 1586.62 26.1121 Q1591.64 26.1121 1595.24 28.0971 Q1598.85 30.082 1601.16 34.0924 L1601.16 27.2059 L1608.61 27.2059 L1608.61 66.9452 Z" fill="#000000" fill-rule="evenodd" fill-opacity="1" /><path clip-path="url(#clip920)" d="M1661.68 45.1919 L1661.68 72.576 L1654.23 72.576 L1654.23 45.4349 Q1654.23 38.994 1651.71 35.7938 Q1649.2 32.5936 1644.18 32.5936 Q1638.14 32.5936 1634.66 36.4419 Q1631.18 40.2903 1631.18 46.9338 L1631.18 72.576 L1623.68 72.576 L1623.68 9.54393 L1631.18 9.54393 L1631.18 34.2544 Q1633.85 30.163 1637.45 28.1376 Q1641.1 26.1121 1645.84 26.1121 Q1653.66 26.1121 1657.67 30.9732 Q1661.68 35.7938 1661.68 45.1919 Z" fill="#000000" fill-rule="evenodd" fill-opacity="1" /><path clip-path="url(#clip920)" d="M1694.13 32.4315 Q1688.13 32.4315 1684.65 37.1306 Q1681.16 41.7891 1681.16 49.9314 Q1681.16 58.0738 1684.61 62.7728 Q1688.09 67.4314 1694.13 67.4314 Q1700.08 67.4314 1703.57 62.7323 Q1707.05 58.0333 1707.05 49.9314 Q1707.05 41.8701 1703.57 37.1711 Q1700.08 32.4315 1694.13 32.4315 M1694.13 26.1121 Q1703.85 26.1121 1709.4 32.4315 Q1714.95 38.7509 1714.95 49.9314 Q1714.95 61.0714 1709.4 67.4314 Q1703.85 73.7508 1694.13 73.7508 Q1684.36 73.7508 1678.81 67.4314 Q1673.31 61.0714 1673.31 49.9314 Q1673.31 38.7509 1678.81 32.4315 Q1684.36 26.1121 1694.13 26.1121 Z" fill="#000000" fill-rule="evenodd" fill-opacity="1" /><path clip-path="url(#clip920)" d="M1726.53 54.671 L1726.53 27.2059 L1733.99 27.2059 L1733.99 54.3874 Q1733.99 60.8284 1736.5 64.0691 Q1739.01 67.2693 1744.03 67.2693 Q1750.07 67.2693 1753.55 63.421 Q1757.08 59.5726 1757.08 52.9291 L1757.08 27.2059 L1764.53 27.2059 L1764.53 72.576 L1757.08 72.576 L1757.08 65.6084 Q1754.36 69.7404 1750.76 71.7658 Q1747.19 73.7508 1742.45 73.7508 Q1734.64 73.7508 1730.58 68.8897 Q1726.53 64.0286 1726.53 54.671 M1745.29 26.1121 L1745.29 26.1121 Z" fill="#000000" fill-rule="evenodd" fill-opacity="1" /><path clip-path="url(#clip920)" d="M1787.26 14.324 L1787.26 27.2059 L1802.61 27.2059 L1802.61 32.9987 L1787.26 32.9987 L1787.26 57.6282 Q1787.26 63.1779 1788.76 64.7578 Q1790.3 66.3376 1794.95 66.3376 L1802.61 66.3376 L1802.61 72.576 L1794.95 72.576 Q1786.33 72.576 1783.04 69.3758 Q1779.76 66.1351 1779.76 57.6282 L1779.76 32.9987 L1774.29 32.9987 L1774.29 27.2059 L1779.76 27.2059 L1779.76 14.324 L1787.26 14.324 Z" fill="#000000" fill-rule="evenodd" fill-opacity="1" /><path clip-path="url(#clip920)" d="M1856.69 9.62495 Q1851.26 18.942 1848.63 28.0566 Q1846 37.1711 1846 46.5287 Q1846 55.8863 1848.63 65.0818 Q1851.3 74.2369 1856.69 83.5134 L1850.21 83.5134 Q1844.13 73.9938 1841.09 64.7983 Q1838.1 55.6027 1838.1 46.5287 Q1838.1 37.4952 1841.09 28.3401 Q1844.09 19.1851 1850.21 9.62495 L1856.69 9.62495 Z" fill="#000000" fill-rule="evenodd" fill-opacity="1" /><path clip-path="url(#clip920)" d="M1900.16 44.2197 Q1902.79 45.1109 1905.26 48.0275 Q1907.77 50.9442 1910.28 56.0483 L1918.59 72.576 L1909.8 72.576 L1902.06 57.061 Q1899.06 50.9847 1896.23 48.9997 Q1893.43 47.0148 1888.57 47.0148 L1879.66 47.0148 L1879.66 72.576 L1871.48 72.576 L1871.48 12.096 L1889.95 12.096 Q1900.32 12.096 1905.42 16.4305 Q1910.53 20.7649 1910.53 29.5149 Q1910.53 35.2267 1907.85 38.994 Q1905.22 42.7613 1900.16 44.2197 M1879.66 18.8205 L1879.66 40.2903 L1889.95 40.2903 Q1895.86 40.2903 1898.86 37.5762 Q1901.9 34.8216 1901.9 29.5149 Q1901.9 24.2082 1898.86 21.5346 Q1895.86 18.8205 1889.95 18.8205 L1879.66 18.8205 Z" fill="#000000" fill-rule="evenodd" fill-opacity="1" /><path clip-path="url(#clip920)" d="M1963.88 48.0275 L1963.88 51.6733 L1929.61 51.6733 Q1930.09 59.3701 1934.22 63.421 Q1938.4 67.4314 1945.81 67.4314 Q1950.1 67.4314 1954.11 66.3781 Q1958.16 65.3249 1962.13 63.2184 L1962.13 70.267 Q1958.12 71.9684 1953.91 72.8596 Q1949.7 73.7508 1945.36 73.7508 Q1934.51 73.7508 1928.15 67.4314 Q1921.83 61.1119 1921.83 50.3365 Q1921.83 39.1965 1927.82 32.6746 Q1933.86 26.1121 1944.07 26.1121 Q1953.22 26.1121 1958.53 32.0264 Q1963.88 37.9003 1963.88 48.0275 M1956.42 45.84 Q1956.34 39.7232 1952.98 36.0774 Q1949.66 32.4315 1944.15 32.4315 Q1937.91 32.4315 1934.14 35.9558 Q1930.42 39.4801 1929.85 45.8805 L1956.42 45.84 Z" fill="#000000" fill-rule="evenodd" fill-opacity="1" /><path clip-path="url(#clip920)" d="M1974.94 9.62495 L1981.42 9.62495 Q1987.49 19.1851 1990.49 28.3401 Q1993.53 37.4952 1993.53 46.5287 Q1993.53 55.6027 1990.49 64.7983 Q1987.49 73.9938 1981.42 83.5134 L1974.94 83.5134 Q1980.32 74.2369 1982.96 65.0818 Q1985.63 55.8863 1985.63 46.5287 Q1985.63 37.1711 1982.96 28.0566 Q1980.32 18.942 1974.94 9.62495 Z" fill="#000000" fill-rule="evenodd" fill-opacity="1" /><path clip-path="url(#clip920)" d="M2008.8 12.096 L2047.04 12.096 L2047.04 18.9825 L2016.98 18.9825 L2016.98 36.8875 L2045.79 36.8875 L2045.79 43.7741 L2016.98 43.7741 L2016.98 65.6895 L2047.77 65.6895 L2047.77 72.576 L2008.8 72.576 L2008.8 12.096 Z" fill="#000000" fill-rule="evenodd" fill-opacity="1" /><path clip-path="url(#clip920)" d="M2098.61 45.1919 L2098.61 72.576 L2091.16 72.576 L2091.16 45.4349 Q2091.16 38.994 2088.64 35.7938 Q2086.13 32.5936 2081.11 32.5936 Q2075.07 32.5936 2071.59 36.4419 Q2068.11 40.2903 2068.11 46.9338 L2068.11 72.576 L2060.61 72.576 L2060.61 27.2059 L2068.11 27.2059 L2068.11 34.2544 Q2070.78 30.163 2074.39 28.1376 Q2078.03 26.1121 2082.77 26.1121 Q2090.59 26.1121 2094.6 30.9732 Q2098.61 35.7938 2098.61 45.1919 Z" fill="#000000" fill-rule="evenodd" fill-opacity="1" /><path clip-path="url(#clip920)" d="M2120.85 14.324 L2120.85 27.2059 L2136.2 27.2059 L2136.2 32.9987 L2120.85 32.9987 L2120.85 57.6282 Q2120.85 63.1779 2122.35 64.7578 Q2123.89 66.3376 2128.55 66.3376 L2136.2 66.3376 L2136.2 72.576 L2128.55 72.576 Q2119.92 72.576 2116.64 69.3758 Q2113.35 66.1351 2113.35 57.6282 L2113.35 32.9987 L2107.89 32.9987 L2107.89 27.2059 L2113.35 27.2059 L2113.35 14.324 L2120.85 14.324 Z" fill="#000000" fill-rule="evenodd" fill-opacity="1" /><path clip-path="url(#clip920)" d="M2172.3 34.1734 Q2171.04 33.4443 2169.54 33.1202 Q2168.08 32.7556 2166.3 32.7556 Q2159.98 32.7556 2156.58 36.8875 Q2153.22 40.9789 2153.22 48.6757 L2153.22 72.576 L2145.72 72.576 L2145.72 27.2059 L2153.22 27.2059 L2153.22 34.2544 Q2155.57 30.1225 2159.33 28.1376 Q2163.1 26.1121 2168.49 26.1121 Q2169.26 26.1121 2170.19 26.2337 Q2171.12 26.3147 2172.26 26.5172 L2172.3 34.1734 Z" fill="#000000" fill-rule="evenodd" fill-opacity="1" /><path clip-path="url(#clip920)" d="M2198.99 76.7889 Q2195.83 84.8907 2192.83 87.3618 Q2189.84 89.8329 2184.81 89.8329 L2178.86 89.8329 L2178.86 83.5945 L2183.23 83.5945 Q2186.31 83.5945 2188.01 82.1361 Q2189.71 80.6778 2191.78 75.2496 L2193.12 71.8468 L2174.77 27.2059 L2182.67 27.2059 L2196.84 62.6918 L2211.02 27.2059 L2218.92 27.2059 L2198.99 76.7889 Z" fill="#000000" fill-rule="evenodd" fill-opacity="1" /><polyline clip-path="url(#clip922)" style="stroke:#009af9; stroke-linecap:round; stroke-linejoin:round; stroke-width:4; stroke-opacity:1; fill:none" points="
  306.647,580.865 307.529,581.476 316.346,587.135 340.745,598.861 380.259,607.217 416.139,604.403 460.503,586.51 521.006,525.809 557.224,445.326 574.496,369.213 
  583.862,293.781 589.519,217.752 594.658,173.254 599.673,252.803 604.063,310.848 612.947,400.068 621.923,475.6 637.157,595.53 658.337,759.167 693.021,1026.34 
  721.497,1240.06 745.275,1370.16 763.85,1414.34 775.662,1429.34 797.849,1446.84 809.77,1453.53 836.538,1465.33 857.151,1472.86 889.102,1483.31 920.93,1492.95 
  957.37,1503.34 996.805,1513.85 1042.1,1524.95 1093.88,1536.47 1149.6,1547.68 1205.77,1557.95 1263.23,1567.58 1320.88,1576.49 1378.21,1584.72 1434.37,1592.26 
  1488.71,1599.13 1540.85,1605.36 1590.67,1611.03 1638.31,1616.2 1684,1620.96 1727.99,1625.38 1770.53,1629.49 1811.76,1633.36 1851.84,1636.99 1890.84,1640.43 
  1928.86,1643.69 1965.94,1646.79 2002.17,1649.74 2037.58,1652.55 2072.23,1655.24 2106.17,1657.83 2139.44,1660.3 2172.07,1662.68 2204.11,1664.98 2235.57,1667.19 
  2266.5,1669.32 2327.32,1673.42 2388.73,1677.41 2501.53,1684.43 2572.77,1688.65 
  "/>
<path clip-path="url(#clip920)" d="
M2216.54 285.016 L2560.69 285.016 L2560.69 181.336 L2216.54 181.336  Z
  " fill="#ffffff" fill-rule="evenodd" fill-opacity="1"/>
<polyline clip-path="url(#clip920)" style="stroke:#000000; stroke-linecap:round; stroke-linejoin:round; stroke-width:4; stroke-opacity:1; fill:none" points="
  2216.54,285.016 2560.69,285.016 2560.69,181.336 2216.54,181.336 2216.54,285.016 
  "/>
<polyline clip-path="url(#clip920)" style="stroke:#009af9; stroke-linecap:round; stroke-linejoin:round; stroke-width:4; stroke-opacity:1; fill:none" points="
  2243.23,233.176 2403.37,233.176 
  "/>
<path clip-path="url(#clip920)" d="M2451.77 234.808 L2451.77 250.456 L2447.51 250.456 L2447.51 234.947 Q2447.51 231.267 2446.08 229.438 Q2444.64 227.609 2441.77 227.609 Q2438.33 227.609 2436.33 229.808 Q2434.34 232.007 2434.34 235.804 L2434.34 250.456 L2430.06 250.456 L2430.06 214.438 L2434.34 214.438 L2434.34 228.558 Q2435.87 226.22 2437.93 225.063 Q2440.02 223.906 2442.72 223.906 Q2447.19 223.906 2449.48 226.683 Q2451.77 229.438 2451.77 234.808 Z" fill="#000000" fill-rule="evenodd" fill-opacity="1" /><path clip-path="url(#clip920)" d="M2470.5 214.484 Q2467.4 219.808 2465.89 225.017 Q2464.39 230.225 2464.39 235.572 Q2464.39 240.919 2465.89 246.174 Q2467.42 251.405 2470.5 256.706 L2466.8 256.706 Q2463.33 251.266 2461.59 246.012 Q2459.88 240.757 2459.88 235.572 Q2459.88 230.41 2461.59 225.179 Q2463.3 219.947 2466.8 214.484 L2470.5 214.484 Z" fill="#000000" fill-rule="evenodd" fill-opacity="1" /><path clip-path="url(#clip920)" d="M2482.98 217.169 L2482.98 224.531 L2491.75 224.531 L2491.75 227.841 L2482.98 227.841 L2482.98 241.915 Q2482.98 245.086 2483.83 245.989 Q2484.71 246.891 2487.38 246.891 L2491.75 246.891 L2491.75 250.456 L2487.38 250.456 Q2482.45 250.456 2480.57 248.628 Q2478.7 246.776 2478.7 241.915 L2478.7 227.841 L2475.57 227.841 L2475.57 224.531 L2478.7 224.531 L2478.7 217.169 L2482.98 217.169 Z" fill="#000000" fill-rule="evenodd" fill-opacity="1" /><path clip-path="url(#clip920)" d="M2496.68 214.484 L2500.39 214.484 Q2503.86 219.947 2505.57 225.179 Q2507.31 230.41 2507.31 235.572 Q2507.31 240.757 2505.57 246.012 Q2503.86 251.266 2500.39 256.706 L2496.68 256.706 Q2499.76 251.405 2501.26 246.174 Q2502.79 240.919 2502.79 235.572 Q2502.79 230.225 2501.26 225.017 Q2499.76 219.808 2496.68 214.484 Z" fill="#000000" fill-rule="evenodd" fill-opacity="1" /></svg>
